<svg width="103" height="29" viewBox="0 0 103 29" fill="none" xmlns="http://www.w3.org/2000/svg">
<path d="M39.176 14.176C39.6667 14.176 40.0187 14.2827 40.232 14.496C40.4667 14.7093 40.584 14.9867 40.584 15.328C40.584 15.8827 40.4133 16.3733 40.072 16.8C39.752 17.2267 39.24 17.4507 38.536 17.472C36.8507 17.4933 35.336 17.3653 33.992 17.088C32.4987 20.2667 30.696 22.912 28.584 25.024C26.4933 27.1147 24.424 28.16 22.376 28.16C20.4987 28.16 19.0907 27.168 18.152 25.184C17.2133 23.1787 16.68 20.5013 16.552 17.152C15.272 20.864 13.8213 23.6267 12.2 25.44C10.6 27.2533 8.89333 28.16 7.08 28.16C5.032 28.16 3.48533 26.8907 2.44 24.352C1.39467 21.792 0.872 18.3573 0.872 14.048C0.872 10.912 1.14933 7.46667 1.704 3.712C1.85333 2.64533 2.12 1.90933 2.504 1.504C2.90933 1.07733 3.53867 0.863998 4.392 0.863998C5.032 0.863998 5.52267 1.00267 5.864 1.28C6.22667 1.55733 6.408 2.06933 6.408 2.816C6.408 2.96533 6.38667 3.25333 6.344 3.68C5.704 8.05333 5.384 11.776 5.384 14.848C5.384 17.7067 5.62933 19.9147 6.12 21.472C6.61067 23.0293 7.272 23.808 8.104 23.808C8.85067 23.808 9.74667 23.0293 10.792 21.472C11.8587 19.8933 12.9147 17.568 13.96 14.496C15.0053 11.4027 15.8907 7.72267 16.616 3.456C16.7867 2.47467 17.096 1.80267 17.544 1.44C18.0133 1.056 18.6427 0.863998 19.432 0.863998C20.0933 0.863998 20.5733 1.01333 20.872 1.312C21.192 1.58933 21.352 2.016 21.352 2.592C21.352 2.93333 21.3307 3.2 21.288 3.392C20.6907 6.86933 20.392 10.3467 20.392 13.824C20.392 16.192 20.4667 18.08 20.616 19.488C20.7867 20.896 21.096 21.9733 21.544 22.72C22.0133 23.4453 22.6853 23.808 23.56 23.808C24.584 23.808 25.7253 23.04 26.984 21.504C28.2427 19.9467 29.3947 18.016 30.44 15.712C29.1387 14.9013 28.1573 13.856 27.496 12.576C26.8347 11.2747 26.504 9.78133 26.504 8.096C26.504 6.41067 26.76 4.992 27.272 3.84C27.8053 2.66666 28.52 1.792 29.416 1.216C30.3333 0.639999 31.3467 0.351999 32.456 0.351999C33.8213 0.351999 34.8987 0.842666 35.688 1.824C36.4987 2.80533 36.904 4.14933 36.904 5.856C36.904 8.26667 36.3813 10.944 35.336 13.888C36.424 14.08 37.704 14.176 39.176 14.176ZM29.736 7.872C29.736 9.96267 30.408 11.5093 31.752 12.512C32.584 10.1227 33 8.14933 33 6.592C33 5.696 32.8827 5.04533 32.648 4.64C32.4133 4.21333 32.0933 4 31.688 4C31.112 4 30.6427 4.34133 30.28 5.024C29.9173 5.68533 29.736 6.63467 29.736 7.872ZM51.7455 20.864C52.0228 20.864 52.2362 20.992 52.3855 21.248C52.5562 21.504 52.6415 21.856 52.6415 22.304C52.6415 23.1573 52.4388 23.8187 52.0335 24.288C51.2442 25.248 50.1242 26.1333 48.6735 26.944C47.2442 27.7547 45.7082 28.16 44.0655 28.16C41.8255 28.16 40.0868 27.552 38.8495 26.336C37.6122 25.12 36.9935 23.456 36.9935 21.344C36.9935 19.872 37.3028 18.5067 37.9215 17.248C38.5402 15.968 39.3935 14.9547 40.4815 14.208C41.5908 13.4613 42.8388 13.088 44.2255 13.088C45.4628 13.088 46.4548 13.4613 47.2015 14.208C47.9482 14.9333 48.3215 15.9253 48.3215 17.184C48.3215 18.656 47.7882 19.9253 46.7215 20.992C45.6762 22.0373 43.8948 22.8693 41.3775 23.488C41.9108 24.4693 42.9242 24.96 44.4175 24.96C45.3775 24.96 46.4655 24.6293 47.6815 23.968C48.9188 23.2853 49.9855 22.4 50.8815 21.312C51.1375 21.0133 51.4255 20.864 51.7455 20.864ZM43.6815 16.224C42.8922 16.224 42.2202 16.6827 41.6655 17.6C41.1322 18.5173 40.8655 19.6267 40.8655 20.928V20.992C42.1242 20.6933 43.1162 20.2453 43.8415 19.648C44.5668 19.0507 44.9295 18.3573 44.9295 17.568C44.9295 17.1627 44.8122 16.8427 44.5775 16.608C44.3642 16.352 44.0655 16.224 43.6815 16.224ZM64.308 20.864C64.5853 20.864 64.7987 20.992 64.948 21.248C65.1187 21.504 65.204 21.856 65.204 22.304C65.204 23.1573 65.0013 23.8187 64.596 24.288C63.6787 25.4187 62.676 26.3467 61.588 27.072C60.5 27.7973 59.252 28.16 57.844 28.16C53.492 28.16 51.316 25.0987 51.316 18.976C51.316 18.0373 51.348 17.088 51.412 16.128H50.164C49.524 16.128 49.0867 16.0107 48.852 15.776C48.6387 15.5413 48.532 15.168 48.532 14.656C48.532 13.4613 49.012 12.864 49.972 12.864H51.796C52.1587 10.5173 52.7133 8.37333 53.46 6.432C54.2067 4.49067 55.1027 2.944 56.148 1.792C57.2147 0.639999 58.356 0.0639992 59.572 0.0639992C60.468 0.0639992 61.172 0.458666 61.684 1.248C62.196 2.03733 62.452 3.02933 62.452 4.224C62.452 7.53067 61.0653 10.4107 58.292 12.864H61.876C62.2173 12.864 62.4627 12.9387 62.612 13.088C62.7613 13.2373 62.836 13.5147 62.836 13.92C62.836 15.392 61.6307 16.128 59.22 16.128H55.316C55.2733 17.1947 55.252 18.0267 55.252 18.624C55.252 20.8427 55.508 22.4 56.02 23.296C56.5533 24.192 57.3853 24.64 58.516 24.64C59.4333 24.64 60.244 24.3627 60.948 23.808C61.652 23.2533 62.484 22.4213 63.444 21.312C63.7 21.0133 63.988 20.864 64.308 20.864ZM58.708 3.136C58.388 3.136 58.0253 3.54133 57.62 4.352C57.236 5.14133 56.8627 6.25067 56.5 7.68C56.1587 9.088 55.8707 10.656 55.636 12.384C56.8947 11.296 57.8333 10.08 58.452 8.736C59.092 7.37067 59.412 6.13333 59.412 5.024C59.412 3.76533 59.1773 3.136 58.708 3.136ZM64.8705 28.16C64.0598 28.16 63.4838 27.7333 63.1425 26.88C62.8225 26.0267 62.6625 24.6613 62.6625 22.784C62.6625 20.0107 63.0572 17.376 63.8465 14.88C64.0385 14.2613 64.3478 13.8133 64.7745 13.536C65.2225 13.2373 65.8412 13.088 66.6305 13.088C67.0572 13.088 67.3558 13.1413 67.5265 13.248C67.6972 13.3547 67.7825 13.5573 67.7825 13.856C67.7825 14.1973 67.6225 14.9653 67.3025 16.16C67.0892 17.0133 66.9185 17.76 66.7905 18.4C66.6625 19.04 66.5558 19.8293 66.4705 20.768C67.1745 18.9333 67.9638 17.44 68.8385 16.288C69.7132 15.136 70.5665 14.3147 71.3985 13.824C72.2518 13.3333 73.0305 13.088 73.7345 13.088C75.1212 13.088 75.8145 13.7813 75.8145 15.168C75.8145 15.4453 75.7185 16.1173 75.5265 17.184C75.3558 18.0373 75.2705 18.5707 75.2705 18.784C75.2705 19.5307 75.5372 19.904 76.0705 19.904C76.6678 19.904 77.4358 19.4347 78.3745 18.496C78.6518 18.2187 78.9398 18.08 79.2385 18.08C79.5158 18.08 79.7292 18.208 79.8785 18.464C80.0492 18.6987 80.1345 19.0187 80.1345 19.424C80.1345 20.2133 79.9212 20.832 79.4945 21.28C78.8972 21.8987 78.1932 22.432 77.3825 22.88C76.5932 23.3067 75.7505 23.52 74.8545 23.52C73.7238 23.52 72.8598 23.232 72.2625 22.656C71.6865 22.08 71.3985 21.3013 71.3985 20.32C71.3985 20 71.4305 19.68 71.4945 19.36C71.5372 18.9333 71.5585 18.6453 71.5585 18.496C71.5585 18.1547 71.4412 17.984 71.2065 17.984C70.8865 17.984 70.4598 18.3467 69.9265 19.072C69.4145 19.776 68.9025 20.7147 68.3905 21.888C67.8785 23.0613 67.4625 24.2987 67.1425 25.6C66.9078 26.6027 66.6305 27.2853 66.3105 27.648C66.0118 27.9893 65.5318 28.16 64.8705 28.16ZM81.353 10.976C80.457 10.976 79.785 10.7733 79.337 10.368C78.889 9.94133 78.665 9.35467 78.665 8.608C78.665 7.86133 78.953 7.24267 79.529 6.752C80.1263 6.24 80.8623 5.984 81.737 5.984C82.5263 5.984 83.1663 6.176 83.657 6.56C84.1477 6.944 84.393 7.488 84.393 8.192C84.393 9.04533 84.1157 9.728 83.561 10.24C83.0063 10.7307 82.2703 10.976 81.353 10.976ZM81.097 28.16C79.7103 28.16 78.697 27.6693 78.057 26.688C77.4383 25.7067 77.129 24.4053 77.129 22.784C77.129 21.824 77.2463 20.5973 77.481 19.104C77.737 17.5893 78.057 16.1813 78.441 14.88C78.633 14.1973 78.889 13.728 79.209 13.472C79.529 13.216 80.041 13.088 80.745 13.088C81.833 13.088 82.377 13.4507 82.377 14.176C82.377 14.7093 82.1743 15.9467 81.769 17.888C81.257 20.2347 81.001 21.824 81.001 22.656C81.001 23.296 81.0863 23.7867 81.257 24.128C81.4277 24.4693 81.7157 24.64 82.121 24.64C82.505 24.64 82.985 24.3733 83.561 23.84C84.137 23.3067 84.905 22.464 85.865 21.312C86.121 21.0133 86.409 20.864 86.729 20.864C87.0063 20.864 87.2197 20.992 87.369 21.248C87.5397 21.504 87.625 21.856 87.625 22.304C87.625 23.1573 87.4223 23.8187 87.017 24.288C84.905 26.8693 82.9317 28.16 81.097 28.16ZM101.772 21.824C102.049 21.824 102.263 21.952 102.412 22.208C102.583 22.464 102.668 22.816 102.668 23.264C102.668 24.032 102.487 24.6933 102.124 25.248C100.865 27.1893 99.0733 28.16 96.748 28.16C95.7453 28.16 94.8493 27.968 94.06 27.584C93.292 27.1787 92.6627 26.6027 92.172 25.856C90.9347 27.3707 89.4947 28.128 87.852 28.128C86.6787 28.128 85.7507 27.7867 85.068 27.104C84.3853 26.4213 84.044 25.5147 84.044 24.384C84.044 23.3173 84.2893 22.4533 84.78 21.792C85.2707 21.1307 85.964 20.8 86.86 20.8C87.628 20.8 88.012 21.088 88.012 21.664C88.012 21.8347 87.9907 22.1333 87.948 22.56L87.852 23.776C87.852 24.416 88.1293 24.736 88.684 24.736C89.0893 24.736 89.4733 24.5013 89.836 24.032C90.22 23.5413 90.5293 22.88 90.764 22.048C91.02 21.216 91.148 20.2987 91.148 19.296C91.148 18.528 91.052 17.888 90.86 17.376C90.668 16.8427 90.4333 16.576 90.156 16.576C89.9213 16.576 89.7507 16.64 89.644 16.768C89.5373 16.8747 89.4307 17.0667 89.324 17.344C89.196 17.6853 89.0253 17.9627 88.812 18.176C88.5987 18.368 88.2253 18.464 87.692 18.464C87.2227 18.464 86.8493 18.304 86.572 17.984C86.2947 17.6427 86.156 17.1307 86.156 16.448C86.156 15.36 86.4867 14.5067 87.148 13.888C87.8093 13.2693 88.6627 12.96 89.708 12.96C90.604 12.96 91.4147 13.184 92.14 13.632C92.8653 14.0587 93.42 14.688 93.804 15.52C94.444 14.6667 95.1587 14.0267 95.948 13.6C96.7587 13.1733 97.548 12.96 98.316 12.96C99.148 12.96 99.7773 13.152 100.204 13.536C100.652 13.92 100.876 14.5387 100.876 15.392C100.876 16.352 100.695 17.1093 100.332 17.664C99.9693 18.1973 99.532 18.464 99.02 18.464C98.5507 18.464 98.2307 18.368 98.06 18.176C97.8893 17.984 97.7613 17.7067 97.676 17.344C97.6333 17.088 97.5693 16.896 97.484 16.768C97.3987 16.64 97.2493 16.576 97.036 16.576C96.78 16.576 96.5027 16.8213 96.204 17.312C95.9267 17.7813 95.6813 18.4107 95.468 19.2C95.276 19.9893 95.18 20.8107 95.18 21.664C95.18 22.624 95.3933 23.392 95.82 23.968C96.268 24.544 96.8013 24.832 97.42 24.832C98.5933 24.832 99.756 23.9893 100.908 22.304C101.121 21.984 101.409 21.824 101.772 21.824Z" fill="#A373E9"/>
</svg>
