<svg width="261" height="36" viewBox="0 0 261 36" fill="none" xmlns="http://www.w3.org/2000/svg">
<path d="M48.72 17.72C49.3333 17.72 49.7733 17.8533 50.04 18.12C50.3333 18.3867 50.48 18.7333 50.48 19.16C50.48 19.8533 50.2667 20.4667 49.84 21C49.44 21.5333 48.8 21.8133 47.92 21.84C45.8133 21.8667 43.92 21.7067 42.24 21.36C40.3733 25.3333 38.12 28.64 35.48 31.28C32.8667 33.8933 30.28 35.2 27.72 35.2C25.3733 35.2 23.6133 33.96 22.44 31.48C21.2667 28.9733 20.6 25.6267 20.44 21.44C18.84 26.08 17.0267 29.5333 15 31.8C13 34.0667 10.8667 35.2 8.6 35.2C6.04 35.2 4.10667 33.6133 2.8 30.44C1.49333 27.24 0.84 22.9467 0.84 17.56C0.84 13.64 1.18667 9.33333 1.88 4.64C2.06667 3.30667 2.4 2.38667 2.88 1.88C3.38667 1.34666 4.17333 1.08 5.24 1.08C6.04 1.08 6.65333 1.25333 7.08 1.6C7.53333 1.94667 7.76 2.58667 7.76 3.52C7.76 3.70667 7.73333 4.06667 7.68 4.6C6.88 10.0667 6.48 14.72 6.48 18.56C6.48 22.1333 6.78667 24.8933 7.4 26.84C8.01333 28.7867 8.84 29.76 9.88 29.76C10.8133 29.76 11.9333 28.7867 13.24 26.84C14.5733 24.8667 15.8933 21.96 17.2 18.12C18.5067 14.2533 19.6133 9.65333 20.52 4.32C20.7333 3.09333 21.12 2.25333 21.68 1.8C22.2667 1.32 23.0533 1.08 24.04 1.08C24.8667 1.08 25.4667 1.26666 25.84 1.64C26.24 1.98666 26.44 2.52 26.44 3.24C26.44 3.66666 26.4133 4 26.36 4.24C25.6133 8.58667 25.24 12.9333 25.24 17.28C25.24 20.24 25.3333 22.6 25.52 24.36C25.7333 26.12 26.12 27.4667 26.68 28.4C27.2667 29.3067 28.1067 29.76 29.2 29.76C30.48 29.76 31.9067 28.8 33.48 26.88C35.0533 24.9333 36.4933 22.52 37.8 19.64C36.1733 18.6267 34.9467 17.32 34.12 15.72C33.2933 14.0933 32.88 12.2267 32.88 10.12C32.88 8.01333 33.2 6.24 33.84 4.8C34.5067 3.33333 35.4 2.24 36.52 1.52C37.6667 0.799999 38.9333 0.439999 40.32 0.439999C42.0267 0.439999 43.3733 1.05333 44.36 2.28C45.3733 3.50667 45.88 5.18667 45.88 7.32C45.88 10.3333 45.2267 13.68 43.92 17.36C45.28 17.6 46.88 17.72 48.72 17.72ZM36.92 9.84C36.92 12.4533 37.76 14.3867 39.44 15.64C40.48 12.6533 41 10.1867 41 8.24C41 7.12 40.8533 6.30667 40.56 5.8C40.2667 5.26666 39.8667 5 39.36 5C38.64 5 38.0533 5.42666 37.6 6.28C37.1467 7.10666 36.92 8.29333 36.92 9.84ZM64.4319 26.08C64.7785 26.08 65.0452 26.24 65.2319 26.56C65.4452 26.88 65.5519 27.32 65.5519 27.88C65.5519 28.9467 65.2985 29.7733 64.7919 30.36C63.8052 31.56 62.4052 32.6667 60.5919 33.68C58.8052 34.6933 56.8852 35.2 54.8319 35.2C52.0319 35.2 49.8585 34.44 48.3119 32.92C46.7652 31.4 45.9919 29.32 45.9919 26.68C45.9919 24.84 46.3785 23.1333 47.1519 21.56C47.9252 19.96 48.9919 18.6933 50.3519 17.76C51.7385 16.8267 53.2985 16.36 55.0319 16.36C56.5785 16.36 57.8185 16.8267 58.7519 17.76C59.6852 18.6667 60.1519 19.9067 60.1519 21.48C60.1519 23.32 59.4852 24.9067 58.1519 26.24C56.8452 27.5467 54.6185 28.5867 51.4719 29.36C52.1385 30.5867 53.4052 31.2 55.2719 31.2C56.4719 31.2 57.8319 30.7867 59.3519 29.96C60.8985 29.1067 62.2319 28 63.3519 26.64C63.6719 26.2667 64.0319 26.08 64.4319 26.08ZM54.3519 20.28C53.3652 20.28 52.5252 20.8533 51.8319 22C51.1652 23.1467 50.8319 24.5333 50.8319 26.16V26.24C52.4052 25.8667 53.6452 25.3067 54.5519 24.56C55.4585 23.8133 55.9119 22.9467 55.9119 21.96C55.9119 21.4533 55.7652 21.0533 55.4719 20.76C55.2052 20.44 54.8319 20.28 54.3519 20.28ZM80.135 26.08C80.4817 26.08 80.7483 26.24 80.935 26.56C81.1483 26.88 81.255 27.32 81.255 27.88C81.255 28.9467 81.0017 29.7733 80.495 30.36C79.3483 31.7733 78.095 32.9333 76.735 33.84C75.375 34.7467 73.815 35.2 72.055 35.2C66.615 35.2 63.895 31.3733 63.895 23.72C63.895 22.5467 63.935 21.36 64.015 20.16H62.455C61.655 20.16 61.1083 20.0133 60.815 19.72C60.5483 19.4267 60.415 18.96 60.415 18.32C60.415 16.8267 61.015 16.08 62.215 16.08H64.495C64.9483 13.1467 65.6417 10.4667 66.575 8.04C67.5083 5.61333 68.6283 3.68 69.935 2.24C71.2683 0.799998 72.695 0.079999 74.215 0.079999C75.335 0.079999 76.215 0.573332 76.855 1.56C77.495 2.54667 77.815 3.78667 77.815 5.28C77.815 9.41333 76.0817 13.0133 72.615 16.08H77.095C77.5217 16.08 77.8283 16.1733 78.015 16.36C78.2017 16.5467 78.295 16.8933 78.295 17.4C78.295 19.24 76.7883 20.16 73.775 20.16H68.895C68.8417 21.4933 68.815 22.5333 68.815 23.28C68.815 26.0533 69.135 28 69.775 29.12C70.4417 30.24 71.4817 30.8 72.895 30.8C74.0417 30.8 75.055 30.4533 75.935 29.76C76.815 29.0667 77.855 28.0267 79.055 26.64C79.375 26.2667 79.735 26.08 80.135 26.08ZM73.135 3.92C72.735 3.92 72.2817 4.42667 71.775 5.44C71.295 6.42667 70.8283 7.81333 70.375 9.6C69.9483 11.36 69.5883 13.32 69.295 15.48C70.8683 14.12 72.0417 12.6 72.815 10.92C73.615 9.21333 74.015 7.66667 74.015 6.28C74.015 4.70667 73.7217 3.92 73.135 3.92ZM80.8381 35.2C79.8248 35.2 79.1048 34.6667 78.6781 33.6C78.2781 32.5333 78.0781 30.8267 78.0781 28.48C78.0781 25.0133 78.5715 21.72 79.5581 18.6C79.7981 17.8267 80.1848 17.2667 80.7181 16.92C81.2781 16.5467 82.0515 16.36 83.0381 16.36C83.5715 16.36 83.9448 16.4267 84.1581 16.56C84.3715 16.6933 84.4781 16.9467 84.4781 17.32C84.4781 17.7467 84.2781 18.7067 83.8781 20.2C83.6115 21.2667 83.3981 22.2 83.2381 23C83.0781 23.8 82.9448 24.7867 82.8381 25.96C83.7181 23.6667 84.7048 21.8 85.7981 20.36C86.8915 18.92 87.9581 17.8933 88.9981 17.28C90.0648 16.6667 91.0381 16.36 91.9181 16.36C93.6515 16.36 94.5181 17.2267 94.5181 18.96C94.5181 19.3067 94.3981 20.1467 94.1581 21.48C93.9448 22.5467 93.8381 23.2133 93.8381 23.48C93.8381 24.4133 94.1715 24.88 94.8381 24.88C95.5848 24.88 96.5448 24.2933 97.7181 23.12C98.0648 22.7733 98.4248 22.6 98.7981 22.6C99.1448 22.6 99.4115 22.76 99.5981 23.08C99.8115 23.3733 99.9181 23.7733 99.9181 24.28C99.9181 25.2667 99.6515 26.04 99.1181 26.6C98.3715 27.3733 97.4915 28.04 96.4781 28.6C95.4915 29.1333 94.4381 29.4 93.3181 29.4C91.9048 29.4 90.8248 29.04 90.0781 28.32C89.3581 27.6 88.9981 26.6267 88.9981 25.4C88.9981 25 89.0381 24.6 89.1181 24.2C89.1715 23.6667 89.1981 23.3067 89.1981 23.12C89.1981 22.6933 89.0515 22.48 88.7581 22.48C88.3581 22.48 87.8248 22.9333 87.1581 23.84C86.5181 24.72 85.8781 25.8933 85.2381 27.36C84.5981 28.8267 84.0781 30.3733 83.6781 32C83.3848 33.2533 83.0381 34.1067 82.6381 34.56C82.2648 34.9867 81.6648 35.2 80.8381 35.2ZM101.441 13.72C100.321 13.72 99.4813 13.4667 98.9213 12.96C98.3613 12.4267 98.0813 11.6933 98.0813 10.76C98.0813 9.82667 98.4413 9.05333 99.1613 8.44C99.9079 7.8 100.828 7.48 101.921 7.48C102.908 7.48 103.708 7.72 104.321 8.2C104.935 8.68 105.241 9.36 105.241 10.24C105.241 11.3067 104.895 12.16 104.201 12.8C103.508 13.4133 102.588 13.72 101.441 13.72ZM101.121 35.2C99.3879 35.2 98.1213 34.5867 97.3213 33.36C96.5479 32.1333 96.1613 30.5067 96.1613 28.48C96.1613 27.28 96.3079 25.7467 96.6013 23.88C96.9213 21.9867 97.3213 20.2267 97.8013 18.6C98.0413 17.7467 98.3613 17.16 98.7613 16.84C99.1613 16.52 99.8013 16.36 100.681 16.36C102.041 16.36 102.721 16.8133 102.721 17.72C102.721 18.3867 102.468 19.9333 101.961 22.36C101.321 25.2933 101.001 27.28 101.001 28.32C101.001 29.12 101.108 29.7333 101.321 30.16C101.535 30.5867 101.895 30.8 102.401 30.8C102.881 30.8 103.481 30.4667 104.201 29.8C104.921 29.1333 105.881 28.08 107.081 26.64C107.401 26.2667 107.761 26.08 108.161 26.08C108.508 26.08 108.775 26.24 108.961 26.56C109.175 26.88 109.281 27.32 109.281 27.88C109.281 28.9467 109.028 29.7733 108.521 30.36C105.881 33.5867 103.415 35.2 101.121 35.2ZM126.965 27.28C127.312 27.28 127.578 27.44 127.765 27.76C127.978 28.08 128.085 28.52 128.085 29.08C128.085 30.04 127.858 30.8667 127.405 31.56C125.832 33.9867 123.592 35.2 120.685 35.2C119.432 35.2 118.312 34.96 117.325 34.48C116.365 33.9733 115.578 33.2533 114.965 32.32C113.418 34.2133 111.618 35.16 109.565 35.16C108.098 35.16 106.938 34.7333 106.085 33.88C105.232 33.0267 104.805 31.8933 104.805 30.48C104.805 29.1467 105.112 28.0667 105.725 27.24C106.338 26.4133 107.205 26 108.325 26C109.285 26 109.765 26.36 109.765 27.08C109.765 27.2933 109.738 27.6667 109.685 28.2L109.565 29.72C109.565 30.52 109.912 30.92 110.605 30.92C111.112 30.92 111.592 30.6267 112.045 30.04C112.525 29.4267 112.912 28.6 113.205 27.56C113.525 26.52 113.685 25.3733 113.685 24.12C113.685 23.16 113.565 22.36 113.325 21.72C113.085 21.0533 112.792 20.72 112.445 20.72C112.152 20.72 111.938 20.8 111.805 20.96C111.672 21.0933 111.538 21.3333 111.405 21.68C111.245 22.1067 111.032 22.4533 110.765 22.72C110.498 22.96 110.032 23.08 109.365 23.08C108.778 23.08 108.312 22.88 107.965 22.48C107.618 22.0533 107.445 21.4133 107.445 20.56C107.445 19.2 107.858 18.1333 108.685 17.36C109.512 16.5867 110.578 16.2 111.885 16.2C113.005 16.2 114.018 16.48 114.925 17.04C115.832 17.5733 116.525 18.36 117.005 19.4C117.805 18.3333 118.698 17.5333 119.685 17C120.698 16.4667 121.685 16.2 122.645 16.2C123.685 16.2 124.472 16.44 125.005 16.92C125.565 17.4 125.845 18.1733 125.845 19.24C125.845 20.44 125.618 21.3867 125.165 22.08C124.712 22.7467 124.165 23.08 123.525 23.08C122.938 23.08 122.538 22.96 122.325 22.72C122.112 22.48 121.952 22.1333 121.845 21.68C121.792 21.36 121.712 21.12 121.605 20.96C121.498 20.8 121.312 20.72 121.045 20.72C120.725 20.72 120.378 21.0267 120.005 21.64C119.658 22.2267 119.352 23.0133 119.085 24C118.845 24.9867 118.725 26.0133 118.725 27.08C118.725 28.28 118.992 29.24 119.525 29.96C120.085 30.68 120.752 31.04 121.525 31.04C122.992 31.04 124.445 29.9867 125.885 27.88C126.152 27.48 126.512 27.28 126.965 27.28ZM144.754 35.2C143.101 35.2 141.781 34.6 140.794 33.4C139.807 32.2 139.314 30.6267 139.314 28.68C139.314 26.5467 139.807 24.5333 140.794 22.64C141.781 20.72 143.087 19.1867 144.714 18.04C146.367 16.8667 148.114 16.28 149.954 16.28C150.541 16.28 150.927 16.4 151.114 16.64C151.327 16.8533 151.501 17.2533 151.634 17.84C152.194 17.7333 152.781 17.68 153.394 17.68C154.701 17.68 155.354 18.1467 155.354 19.08C155.354 19.64 155.154 20.9733 154.754 23.08C154.141 26.1467 153.834 28.28 153.834 29.48C153.834 29.88 153.927 30.2 154.114 30.44C154.327 30.68 154.594 30.8 154.914 30.8C155.421 30.8 156.034 30.48 156.754 29.84C157.474 29.1733 158.447 28.1067 159.674 26.64C159.994 26.2667 160.354 26.08 160.754 26.08C161.101 26.08 161.367 26.24 161.554 26.56C161.767 26.88 161.874 27.32 161.874 27.88C161.874 28.9467 161.621 29.7733 161.114 30.36C160.021 31.72 158.861 32.8667 157.634 33.8C156.407 34.7333 155.221 35.2 154.074 35.2C153.194 35.2 152.381 34.9067 151.634 34.32C150.914 33.7067 150.367 32.88 149.994 31.84C148.607 34.08 146.861 35.2 144.754 35.2ZM146.194 31.16C146.781 31.16 147.341 30.8133 147.874 30.12C148.407 29.4267 148.794 28.5067 149.034 27.36L150.514 20C149.394 20.0267 148.354 20.4533 147.394 21.28C146.461 22.08 145.714 23.1467 145.154 24.48C144.594 25.8133 144.314 27.2267 144.314 28.72C144.314 29.5467 144.474 30.16 144.794 30.56C145.141 30.96 145.607 31.16 146.194 31.16ZM166.263 35.2C163.65 35.2 161.61 34.4667 160.143 33C158.703 31.5067 157.983 29.5467 157.983 27.12C157.983 24.96 158.41 23.0667 159.263 21.44C160.116 19.8133 161.223 18.56 162.583 17.68C163.943 16.8 165.37 16.36 166.863 16.36C168.33 16.36 169.463 16.8 170.263 17.68C171.09 18.5333 171.503 19.64 171.503 21C171.503 22.12 171.25 23.0667 170.743 23.84C170.263 24.6133 169.623 25 168.823 25C168.316 25 167.903 24.88 167.583 24.64C167.29 24.4 167.143 24.0667 167.143 23.64C167.143 23.4533 167.17 23.24 167.223 23C167.276 22.76 167.316 22.5867 167.343 22.48C167.476 22.08 167.543 21.7067 167.543 21.36C167.543 21.0133 167.45 20.7467 167.263 20.56C167.103 20.3733 166.863 20.28 166.543 20.28C165.93 20.28 165.356 20.56 164.823 21.12C164.29 21.6533 163.863 22.3867 163.543 23.32C163.223 24.2533 163.063 25.28 163.063 26.4C163.063 29.4933 164.41 31.04 167.103 31.04C168.196 31.04 169.37 30.68 170.623 29.96C171.903 29.2133 173.156 28.1067 174.383 26.64C174.703 26.2667 175.063 26.08 175.463 26.08C175.81 26.08 176.076 26.24 176.263 26.56C176.476 26.88 176.583 27.32 176.583 27.88C176.583 28.8933 176.33 29.72 175.823 30.36C174.57 31.9067 173.063 33.1067 171.303 33.96C169.57 34.7867 167.89 35.2 166.263 35.2ZM180.99 35.2C178.376 35.2 176.336 34.4667 174.87 33C173.43 31.5067 172.71 29.5467 172.71 27.12C172.71 24.96 173.136 23.0667 173.99 21.44C174.843 19.8133 175.95 18.56 177.31 17.68C178.67 16.8 180.096 16.36 181.59 16.36C183.056 16.36 184.19 16.8 184.99 17.68C185.816 18.5333 186.23 19.64 186.23 21C186.23 22.12 185.976 23.0667 185.47 23.84C184.99 24.6133 184.35 25 183.55 25C183.043 25 182.63 24.88 182.31 24.64C182.016 24.4 181.87 24.0667 181.87 23.64C181.87 23.4533 181.896 23.24 181.95 23C182.003 22.76 182.043 22.5867 182.07 22.48C182.203 22.08 182.27 21.7067 182.27 21.36C182.27 21.0133 182.176 20.7467 181.99 20.56C181.83 20.3733 181.59 20.28 181.27 20.28C180.656 20.28 180.083 20.56 179.55 21.12C179.016 21.6533 178.59 22.3867 178.27 23.32C177.95 24.2533 177.79 25.28 177.79 26.4C177.79 29.4933 179.136 31.04 181.83 31.04C182.923 31.04 184.096 30.68 185.35 29.96C186.63 29.2133 187.883 28.1067 189.11 26.64C189.43 26.2667 189.79 26.08 190.19 26.08C190.536 26.08 190.803 26.24 190.99 26.56C191.203 26.88 191.31 27.32 191.31 27.88C191.31 28.8933 191.056 29.72 190.55 30.36C189.296 31.9067 187.79 33.1067 186.03 33.96C184.296 34.7867 182.616 35.2 180.99 35.2ZM208.476 22.72C208.823 22.72 209.09 22.8933 209.276 23.24C209.463 23.5867 209.556 24.0267 209.556 24.56C209.556 25.84 209.17 26.6 208.396 26.84C206.796 27.4 205.036 27.72 203.116 27.8C202.61 30.04 201.61 31.84 200.116 33.2C198.623 34.5333 196.93 35.2 195.036 35.2C193.436 35.2 192.063 34.8133 190.916 34.04C189.796 33.2667 188.943 32.24 188.356 30.96C187.77 29.68 187.476 28.2933 187.476 26.8C187.476 24.7733 187.863 22.9733 188.636 21.4C189.41 19.8 190.476 18.56 191.836 17.68C193.196 16.7733 194.703 16.32 196.356 16.32C198.383 16.32 200.01 17.0267 201.236 18.44C202.49 19.8267 203.223 21.5467 203.436 23.6C204.69 23.52 206.183 23.2533 207.916 22.8C208.13 22.7467 208.316 22.72 208.476 22.72ZM195.356 30.96C196.21 30.96 196.943 30.6133 197.556 29.92C198.196 29.2267 198.623 28.2267 198.836 26.92C198.01 26.36 197.37 25.6267 196.916 24.72C196.49 23.8133 196.276 22.8533 196.276 21.84C196.276 21.4133 196.316 20.9867 196.396 20.56H196.196C195.13 20.56 194.236 21.08 193.516 22.12C192.823 23.1333 192.476 24.5733 192.476 26.44C192.476 27.9067 192.756 29.0267 193.316 29.8C193.903 30.5733 194.583 30.96 195.356 30.96ZM210.203 35.2C209.003 35.2 208.016 34.6533 207.243 33.56C206.496 32.44 206.123 31.0533 206.123 29.4C206.123 27.4 206.256 25.5733 206.523 23.92C206.79 22.24 207.23 20.4667 207.843 18.6C208.11 17.8 208.483 17.2267 208.963 16.88C209.443 16.5333 210.203 16.36 211.243 16.36C211.83 16.36 212.23 16.4533 212.443 16.64C212.683 16.8267 212.803 17.1067 212.803 17.48C212.803 17.6933 212.656 18.4133 212.363 19.64C212.096 20.6267 211.883 21.52 211.723 22.32C211.19 25.12 210.923 26.9867 210.923 27.92C210.923 28.48 210.99 28.88 211.123 29.12C211.256 29.3333 211.47 29.44 211.763 29.44C212.163 29.44 212.656 29.04 213.243 28.24C213.856 27.44 214.496 26.2267 215.163 24.6C215.856 22.9733 216.523 20.9733 217.163 18.6C217.376 17.8 217.696 17.2267 218.123 16.88C218.576 16.5333 219.243 16.36 220.123 16.36C220.736 16.36 221.163 16.44 221.403 16.6C221.643 16.7333 221.763 17 221.763 17.4C221.763 18.0667 221.43 19.8933 220.763 22.88C220.016 26.2933 219.643 28.4 219.643 29.2C219.643 29.7067 219.75 30.1067 219.963 30.4C220.176 30.6667 220.456 30.8 220.803 30.8C221.336 30.8 221.963 30.48 222.683 29.84C223.43 29.1733 224.416 28.1067 225.643 26.64C225.963 26.2667 226.323 26.08 226.723 26.08C227.07 26.08 227.336 26.24 227.523 26.56C227.736 26.88 227.843 27.32 227.843 27.88C227.843 28.9467 227.59 29.7733 227.083 30.36C225.936 31.7733 224.696 32.9333 223.363 33.84C222.056 34.7467 220.563 35.2 218.883 35.2C217.603 35.2 216.656 34.7067 216.043 33.72C215.456 32.7333 215.163 31.3467 215.163 29.56C214.71 31.3733 214.03 32.7733 213.123 33.76C212.216 34.72 211.243 35.2 210.203 35.2ZM227.44 35.2C226.426 35.2 225.706 34.6667 225.28 33.6C224.88 32.5333 224.68 30.8267 224.68 28.48C224.68 25.0133 225.173 21.72 226.16 18.6C226.4 17.8267 226.786 17.2667 227.32 16.92C227.88 16.5467 228.653 16.36 229.64 16.36C230.173 16.36 230.546 16.4267 230.76 16.56C230.973 16.6933 231.08 16.9467 231.08 17.32C231.08 17.7467 230.88 18.7067 230.48 20.2C230.213 21.2667 230 22.2 229.84 23C229.68 23.8 229.546 24.7867 229.44 25.96C230.32 23.6667 231.306 21.8 232.4 20.36C233.493 18.92 234.56 17.8933 235.6 17.28C236.666 16.6667 237.64 16.36 238.52 16.36C240.253 16.36 241.12 17.2267 241.12 18.96C241.12 20 240.826 21.88 240.24 24.6C239.733 26.92 239.48 28.4533 239.48 29.2C239.48 30.2667 239.866 30.8 240.64 30.8C241.173 30.8 241.8 30.48 242.52 29.84C243.266 29.1733 244.253 28.1067 245.48 26.64C245.8 26.2667 246.16 26.08 246.56 26.08C246.906 26.08 247.173 26.24 247.36 26.56C247.573 26.88 247.68 27.32 247.68 27.88C247.68 28.9467 247.426 29.7733 246.92 30.36C245.773 31.7733 244.533 32.9333 243.2 33.84C241.893 34.7467 240.4 35.2 238.72 35.2C237.36 35.2 236.333 34.8133 235.64 34.04C234.946 33.24 234.6 32.0933 234.6 30.6C234.6 29.8533 234.786 28.52 235.16 26.6C235.506 24.92 235.68 23.76 235.68 23.12C235.68 22.6933 235.533 22.48 235.24 22.48C234.893 22.48 234.4 22.9333 233.76 23.84C233.146 24.72 232.506 25.8933 231.84 27.36C231.2 28.8267 230.68 30.3733 230.28 32C229.986 33.2533 229.64 34.1067 229.24 34.56C228.866 34.9867 228.266 35.2 227.44 35.2ZM251.043 20.16C250.99 21.4933 250.963 22.5333 250.963 23.28C250.963 25.2 251.057 26.7067 251.243 27.8C251.457 28.8667 251.79 29.64 252.243 30.12C252.723 30.5733 253.377 30.8 254.203 30.8C254.63 30.8 255.137 30.6667 255.723 30.4C256.31 30.1333 256.843 29.7867 257.323 29.36C257.617 29.0933 257.91 28.96 258.203 28.96C258.523 28.96 258.777 29.1467 258.963 29.52C259.177 29.8667 259.283 30.2933 259.283 30.8C259.283 31.3067 259.177 31.8 258.963 32.28C258.777 32.76 258.483 33.16 258.083 33.48C256.697 34.6267 255.123 35.2 253.363 35.2C250.83 35.2 248.977 34.1467 247.803 32.04C246.63 29.9067 246.043 27.1333 246.043 23.72C246.043 22.5467 246.083 21.36 246.163 20.16H244.603C243.803 20.16 243.257 20.0133 242.963 19.72C242.697 19.4267 242.563 18.96 242.563 18.32C242.563 16.8267 243.163 16.08 244.363 16.08H246.643C247.097 13.1467 247.79 10.4667 248.723 8.04C249.657 5.61333 250.777 3.68 252.083 2.24C253.417 0.799998 254.843 0.079999 256.363 0.079999C257.483 0.079999 258.363 0.573332 259.003 1.56C259.643 2.54667 259.963 3.78667 259.963 5.28C259.963 9.41333 258.23 13.0133 254.763 16.08H259.243C259.67 16.08 259.977 16.1733 260.163 16.36C260.35 16.5467 260.443 16.8933 260.443 17.4C260.443 19.24 258.937 20.16 255.923 20.16H251.043ZM255.283 3.92C254.883 3.92 254.43 4.42667 253.923 5.44C253.443 6.42667 252.977 7.81333 252.523 9.6C252.097 11.36 251.737 13.32 251.443 15.48C253.017 14.12 254.19 12.6 254.963 10.92C255.763 9.21333 256.163 7.66667 256.163 6.28C256.163 4.70667 255.87 3.92 255.283 3.92Z" fill="#A373E9"/>
</svg>
